<svg width="151" height="71" viewBox="0 0 151 71" fill="none" xmlns="http://www.w3.org/2000/svg">
<path d="M59.9 25.1C60.2 25.2 60.4 25.3 60.7 25.3C61 25.3 61.2 25.3 61.4 25.3C61.6 25.3 61.9 25.3 62.1 25.2C62.3 25.2 62.5 25.1 62.7 25.1V21.9C62.5 21.9 62.3 21.8 62.1 21.8C61.9 21.8 61.7 21.8 61.5 21.8C60.7 21.8 60.1 21.9 59.7 22.2C59.2 22.6 59 23.1 59 23.7C59 24.1 59.1 24.4 59.3 24.7C59.4 24.9 59.7 25 59.9 25.1Z" fill="white"/>
<path d="M50.3998 18.3C49.9998 17.8 49.4998 17.6 48.7998 17.6C47.9998 17.6 47.3998 17.8 46.9998 18.3C46.5998 18.7 46.2998 19.4 46.2998 20.2H51.1998C50.9998 19.4 50.7998 18.8 50.3998 18.3Z" fill="white"/>
<path d="M66.8 2.3C62.6 0.2 56.4 2.3 56.4 2.3C31.5 10.4 31.8 10.2 25.7 12.3C25.5 12.4 25.2 12.5 25.1 12.5C24.8 12.5 24.5 12.2 24.5 11.9C24.5 11.7 24.6 11.6 24.7 11.5C24.8 11.4 24.9 11.4 24.9 11.4C24.9 11.4 29.4 8.6 33.6 6C34.6 5.4 35.3 5 36.2 4.5C36.9 4.1 39.1 2.9 39.1 1.6C39.1 0.8 38.5 0.1 37.6 0H37.3H36.1H20.2H15C11.3 0 8.6 1.1 6.7 2.2C2.7 4.9 0 9.4 0 14.6C0 18.4 1.5 21.9 3.8 24.5L48.5 66.8C51.1 69.3 54.7 70.9 58.6 70.9C66.7 70.9 73.2 64.3 73.2 56.2V12.5C73.3 8.3 70.6 4.6 66.8 2.3ZM56.3 21.9C56.6 21.4 57.1 21 57.6 20.7C58.1 20.4 58.7 20.2 59.3 20C59.9 19.9 60.6 19.8 61.2 19.8C61.7 19.8 62.2 19.8 62.7 19.9V19.6C62.7 19.2 62.6 18.9 62.5 18.7C62.4 18.5 62.2 18.3 62 18.1C61.8 18 61.5 17.9 61.2 17.8C60.9 17.8 60.5 17.7 60.1 17.7C59.2 17.7 58.3 17.9 57.3 18.2C57.1 17.8 56.9 17.4 56.8 17C56.7 16.6 56.6 16.2 56.6 15.7C57.3 15.5 58 15.3 58.7 15.2C59.4 15.1 60.1 15 60.6 15C62.3 15 63.6 15.4 64.5 16.2C65.5 17 65.9 18.3 65.9 20V27.2C65.3 27.4 64.7 27.5 63.9 27.7C63.1 27.9 62.2 27.9 61.2 27.9C60.4 27.9 59.6 27.8 59 27.7C58.3 27.6 57.7 27.3 57.3 27C56.8 26.7 56.4 26.2 56.2 25.7C55.9 25.2 55.8 24.5 55.8 23.8C55.8 23.1 56 22.4 56.3 21.9ZM21.1 27.3C21.1 27.4 21.1 27.5 21.1 27.6C20.8 27.7 20.5 27.7 20.2 27.8C19.8 27.8 19.5 27.9 19.2 27.9C18 27.9 17 27.6 16.2 26.9C15.5 26.2 15.1 25.1 15.1 23.6V10.2C15.7 10.1 16.2 10.1 16.8 10.1C17.3 10.1 17.9 10.1 18.5 10.2V22.8C18.5 23.3 18.5 23.7 18.6 24C18.7 24.3 18.7 24.5 18.9 24.7C19 24.9 19.2 25 19.4 25C19.5 25.1 19.7 25.1 20 25.1C20.1 25.1 20.3 25.1 20.4 25.1C20.6 25.1 20.7 25.1 20.9 25C21.1 25.7 21.2 26.3 21.2 26.9V27.3H21.1ZM26.7 27.7C26.1 27.8 25.6 27.8 25 27.8C24.5 27.8 23.9 27.7 23.3 27.7V17.9H21.7C21.7 17.7 21.6 17.5 21.6 17.2C21.6 17 21.6 16.7 21.6 16.5C21.6 16.1 21.7 15.6 21.7 15.2H26.6V27.7H26.7ZM40.9 27.7C40.3 27.8 39.7 27.8 39.2 27.8C38.7 27.8 38.1 27.7 37.5 27.7V20.7C37.5 19.8 37.4 19.2 37.1 18.7C36.9 18.2 36.4 18 35.7 18C35.4 18 35.1 18 34.9 18.1C34.6 18.2 34.3 18.3 34.1 18.6C33.9 18.8 33.7 19.2 33.5 19.6C33.3 20 33.3 20.6 33.3 21.2V27.7C32.7 27.8 32.1 27.8 31.6 27.8C31 27.8 30.5 27.7 29.9 27.7V15.3C30.1 15.2 30.4 15.2 30.6 15.2C30.8 15.2 31.1 15.2 31.3 15.2C31.6 15.2 31.8 15.2 32 15.2C32.2 15.2 32.4 15.3 32.7 15.3C32.7 15.4 32.8 15.5 32.8 15.6C32.8 15.8 32.9 15.9 32.9 16.1C32.9 16.3 33 16.4 33 16.6C33 16.8 33 16.9 33 17C33.2 16.8 33.4 16.5 33.6 16.3C33.8 16.1 34.1 15.8 34.4 15.7C34.7 15.5 35 15.4 35.4 15.2C35.8 15.1 36.2 15 36.6 15C38 15 39.1 15.4 39.8 16.1C40.5 16.9 40.9 18.1 40.9 19.7V27.7ZM46.4 27.5C45.6 27.2 44.9 26.7 44.4 26.2C43.9 25.6 43.5 25 43.3 24.2C43.1 23.4 42.9 22.6 42.9 21.6C42.9 20.7 43 19.8 43.3 19C43.5 18.2 43.9 17.5 44.4 16.9C44.9 16.3 45.5 15.8 46.3 15.5C47.1 15.2 47.9 15 48.9 15C49.8 15 50.5 15.1 51.2 15.5C51.9 15.8 52.4 16.2 52.9 16.7C53.4 17.2 53.7 17.9 54 18.6C54.2 19.3 54.4 20.1 54.4 20.9C54.4 21.2 54.4 21.5 54.4 21.8C54.4 22.1 54.3 22.3 54.3 22.5H46.3C46.3 23.5 46.7 24.2 47.3 24.6C47.9 25 48.7 25.3 49.7 25.3C50.2 25.3 50.8 25.2 51.4 25.1C52 25 52.5 24.9 53 24.7C53.2 25 53.3 25.4 53.5 25.8C53.6 26.3 53.7 26.7 53.7 27.2C52.5 27.7 51 27.9 49.5 27.9C48.2 28 47.2 27.8 46.4 27.5ZM66.4 58.6C66.4 62.5 63.1 62.6 63.1 62.6H60.5H57.3V42.7H54.9H51.7V38.4C52.9 38.4 54.3 38 55.6 37.2C56.9 36.4 57.9 35 58.4 33.1H59H60H61.5H63.2H63.7C64.3 33.2 64.9 33.5 65.4 33.9C66 34.5 66.3 35.2 66.3 36V58.6H66.4Z" fill="white"/>
<path d="M88.4 33.1C88.9 33 89.3 33 89.7 33C90.2 33 90.6 33 91.1 33.1L94 40.3L97 33.1C97.4 33 97.8 33 98.2 33C98.7 33 99.1 33 99.5 33.1L100.1 45.7C99.7 45.8 99.2 45.8 98.9 45.8C98.5 45.8 98.1 45.8 97.7 45.7L97.4 37.1L94.9 43C94.7 43 94.6 43 94.4 43.1C94.2 43.1 94 43.1 93.9 43.1C93.7 43.1 93.6 43.1 93.4 43.1C93.3 43.1 93.1 43.1 92.9 43L90.4 37L90.2 45.7C89.8 45.8 89.5 45.8 89.1 45.8C88.7 45.8 88.3 45.8 88 45.7L88.4 33.1Z" fill="white"/>
<path d="M104.8 42C104.9 42.7 105.1 43.2 105.5 43.5C105.9 43.8 106.5 44 107.3 44C107.7 44 108.1 44 108.5 43.9C108.9 43.8 109.3 43.7 109.7 43.6C109.8 43.8 110 44.1 110 44.4C110.1 44.7 110.1 45.1 110.2 45.5C109.3 45.8 108.3 46 107.1 46C106.3 46 105.5 45.9 104.9 45.6C104.3 45.4 103.8 45 103.4 44.6C103 44.2 102.7 43.7 102.5 43.1C102.3 42.5 102.2 41.9 102.2 41.2C102.2 40.5 102.3 39.9 102.5 39.3C102.7 38.7 103 38.2 103.3 37.8C103.7 37.4 104.1 37 104.7 36.8C105.3 36.5 105.9 36.4 106.6 36.4C107.2 36.4 107.8 36.5 108.3 36.7C108.8 36.9 109.2 37.2 109.6 37.6C109.9 38 110.2 38.4 110.4 39C110.6 39.5 110.6 40.1 110.6 40.7C110.6 40.9 110.6 41.1 110.6 41.4C110.6 41.6 110.6 41.8 110.6 41.9H104.8V42ZM108.3 40.3C108.3 39.7 108.1 39.3 107.8 38.9C107.5 38.6 107.1 38.4 106.6 38.4C106 38.4 105.6 38.6 105.3 38.9C105 39.2 104.8 39.7 104.8 40.3H108.3Z" fill="white"/>
<path d="M112.9 38.6H111.7L111.6 38.3L115 34.1H115.4V36.8H117.5C117.5 37 117.5 37.1 117.6 37.3C117.6 37.4 117.6 37.6 117.6 37.7C117.6 37.9 117.6 38 117.6 38.2C117.6 38.4 117.6 38.5 117.5 38.7H115.4V42.3C115.4 42.7 115.4 43 115.5 43.2C115.6 43.4 115.6 43.6 115.8 43.7C115.9 43.8 116 43.9 116.2 44C116.4 44 116.6 44.1 116.8 44.1C117 44.1 117.2 44.1 117.3 44.1C117.5 44.1 117.6 44 117.8 44C117.9 44.2 117.9 44.5 118 44.7C118 44.9 118 45.2 118 45.3C118 45.4 118 45.5 118 45.6C118 45.7 118 45.8 118 45.9C117.5 46 116.9 46.1 116.3 46.1C115.2 46.1 114.4 45.9 113.9 45.4C113.3 44.9 113.1 44.1 113.1 43V38.6H112.9Z" fill="white"/>
<path d="M119.4 36.7C119.6 36.7 119.7 36.6 119.9 36.6C120.1 36.6 120.2 36.6 120.4 36.6C120.6 36.6 120.7 36.6 120.9 36.6C121.1 36.6 121.2 36.7 121.4 36.7C121.4 36.8 121.5 36.8 121.5 37C121.5 37.1 121.5 37.2 121.6 37.4C121.6 37.5 121.7 37.6 121.7 37.8C121.7 37.9 121.7 38 121.7 38.1C121.9 37.7 122.3 37.4 122.6 37.1C123 36.8 123.4 36.7 124 36.7C124.1 36.7 124.3 36.7 124.4 36.7C124.5 36.7 124.7 36.7 124.7 36.8C124.7 36.9 124.8 37.1 124.8 37.2C124.8 37.4 124.8 37.5 124.8 37.7C124.8 37.9 124.8 38.1 124.8 38.4C124.8 38.6 124.7 38.9 124.7 39.1C124.6 39.1 124.4 39.1 124.3 39.1H124C123.8 39.1 123.6 39.1 123.3 39.2C123.1 39.2 122.8 39.3 122.6 39.5C122.4 39.7 122.2 39.9 122.1 40.3C122 40.7 121.9 41.1 121.9 41.8V46.1C121.7 46.1 121.5 46.2 121.3 46.2C121.1 46.2 120.9 46.2 120.7 46.2C120.5 46.2 120.3 46.2 120.1 46.2C119.9 46.2 119.7 46.2 119.5 46.1V36.7H119.4Z" fill="white"/>
<path d="M130 46C129.3 46 128.6 45.9 128.1 45.6C127.6 45.4 127.1 45 126.8 44.6C126.4 44.2 126.2 43.7 126 43.1C125.8 42.5 125.7 41.9 125.7 41.2C125.7 40.5 125.8 39.9 126 39.3C126.2 38.7 126.5 38.2 126.8 37.8C127.2 37.4 127.6 37 128.1 36.8C128.7 36.6 129.3 36.4 130 36.4C130.7 36.4 131.4 36.5 131.9 36.8C132.4 37 132.9 37.4 133.3 37.8C133.7 38.2 133.9 38.7 134.1 39.3C134.3 39.9 134.4 40.5 134.4 41.2C134.4 41.9 134.3 42.5 134.1 43.1C133.9 43.7 133.6 44.2 133.3 44.6C132.9 45 132.5 45.4 131.9 45.6C131.4 45.9 130.7 46 130 46ZM130 44.1C130.7 44.1 131.1 43.9 131.4 43.4C131.7 42.9 131.8 42.2 131.8 41.3C131.8 40.4 131.6 39.7 131.4 39.2C131.1 38.7 130.7 38.5 130 38.5C129.4 38.5 128.9 38.7 128.6 39.2C128.3 39.7 128.2 40.4 128.2 41.3C128.2 42.2 128.3 42.9 128.6 43.4C128.9 43.9 129.4 44.1 130 44.1Z" fill="white"/>
<path d="M94.1 49.4C94.3 49.4 94.5 49.3 94.7 49.3C94.9 49.3 95.1 49.3 95.3 49.3C95.5 49.3 95.7 49.3 95.9 49.3C96.1 49.3 96.3 49.3 96.5 49.4V62.3C96 62.5 95.4 62.6 94.8 62.7C94.2 62.8 93.5 62.8 92.7 62.8C92.1 62.8 91.5 62.7 90.9 62.5C90.3 62.3 89.8 62 89.3 61.7C88.8 61.3 88.5 60.8 88.2 60.2C88.1 59.7 88 59 88 58.1C88 57.4 88.1 56.8 88.3 56.2C88.5 55.6 88.8 55.1 89.2 54.6C89.6 54.1 90.1 53.8 90.7 53.5C91.3 53.2 92 53.1 92.7 53.1C92.9 53.1 93.1 53.1 93.4 53.1C93.6 53.1 93.8 53.2 94.1 53.2V49.4ZM94.1 55.2C93.8 55.1 93.6 55.1 93.5 55.1C93.4 55.1 93.2 55.1 92.9 55.1C92.5 55.1 92.2 55.2 91.9 55.3C91.6 55.5 91.4 55.7 91.2 56C91 56.3 90.9 56.6 90.8 57C90.7 57.4 90.7 57.7 90.7 58.1C90.7 58.6 90.7 59 90.9 59.4C91 59.7 91.2 60 91.4 60.2C91.6 60.4 91.8 60.6 92.2 60.6C92.5 60.7 92.8 60.7 93.1 60.7C93.3 60.7 93.5 60.7 93.7 60.7C93.9 60.7 94.1 60.6 94.3 60.6V55.2H94.1Z" fill="white"/>
<path d="M101.1 58.8C101.1 59.5 101.4 60.1 101.8 60.4C102.3 60.7 102.9 60.9 103.6 60.9C104 60.9 104.4 60.9 104.9 60.8C105.3 60.7 105.7 60.6 106.1 60.5C106.2 60.7 106.3 61 106.4 61.4C106.5 61.7 106.5 62.1 106.6 62.5C105.7 62.9 104.6 63 103.4 63C102.5 63 101.8 62.9 101.2 62.6C100.6 62.4 100.1 62 99.7 61.6C99.3 61.2 99 60.7 98.8 60.1C98.6 59.5 98.5 58.9 98.5 58.2C98.5 57.5 98.6 56.9 98.8 56.3C99 55.7 99.3 55.2 99.7 54.7C100.1 54.3 100.6 53.9 101.1 53.6C101.6 53.3 102.3 53.2 103 53.2C103.7 53.2 104.2 53.3 104.7 53.5C105.2 53.7 105.6 54 106 54.4C106.4 54.8 106.6 55.3 106.8 55.8C107 56.3 107.1 56.9 107.1 57.6C107.1 57.8 107.1 58.1 107.1 58.3C107.1 58.5 107.1 58.7 107 58.8H101.1ZM104.8 57C104.8 56.4 104.6 56 104.3 55.6C104 55.2 103.6 55.1 103.1 55.1C102.5 55.1 102 55.3 101.7 55.6C101.4 55.9 101.2 56.4 101.1 57H104.8Z" fill="white"/>
<path d="M113.2 49.7C113.6 49.6 114.1 49.6 114.5 49.6C114.9 49.6 115.4 49.6 115.8 49.7V60.4H120.3C120.3 60.6 120.4 60.8 120.4 61C120.4 61.2 120.4 61.4 120.4 61.5C120.4 61.7 120.4 61.9 120.4 62.1C120.4 62.3 120.4 62.5 120.3 62.7H113.2V49.7Z" fill="white"/>
<path d="M122.5 55.3H121.3C121.3 55.1 121.2 55 121.2 54.8C121.2 54.6 121.2 54.5 121.2 54.3C121.2 54 121.2 53.7 121.3 53.3H125V62.7C124.6 62.8 124.2 62.8 123.7 62.8C123.3 62.8 122.9 62.8 122.5 62.7V55.3ZM122.1 51.7C122 51.3 122 50.9 122 50.5C122 50.1 122 49.7 122.1 49.3C122.3 49.3 122.5 49.2 122.8 49.2C123 49.2 123.2 49.2 123.4 49.2C123.6 49.2 123.8 49.2 124.1 49.2C124.4 49.2 124.6 49.2 124.8 49.3C124.8 49.5 124.9 49.7 124.9 49.9C124.9 50.1 124.9 50.3 124.9 50.5C124.9 50.7 124.9 50.9 124.9 51.1C124.9 51.3 124.9 51.5 124.8 51.7C124.6 51.7 124.4 51.8 124.1 51.8C123.9 51.8 123.7 51.8 123.4 51.8C123.2 51.8 123 51.8 122.8 51.8C122.5 51.8 122.3 51.8 122.1 51.7Z" fill="white"/>
<path d="M127.5 53.3C127.7 53.3 127.8 53.2 128 53.2C128.2 53.2 128.4 53.2 128.6 53.2C128.8 53.2 129 53.2 129.1 53.2C129.3 53.2 129.4 53.2 129.6 53.3C129.6 53.4 129.7 53.4 129.7 53.6C129.7 53.7 129.8 53.8 129.8 54C129.8 54.1 129.8 54.2 129.9 54.4C129.9 54.5 129.9 54.6 129.9 54.7C130 54.5 130.1 54.3 130.3 54.2C130.5 54 130.6 53.9 130.9 53.7C131.1 53.6 131.4 53.4 131.6 53.3C131.9 53.2 132.2 53.2 132.5 53.2C134 53.2 134.9 53.8 135.3 54.9C135.5 54.5 135.9 54.1 136.3 53.7C136.7 53.4 137.3 53.2 138 53.2C139.1 53.2 139.8 53.5 140.3 54.1C140.8 54.7 141 55.6 141 56.8V62.7C140.6 62.8 140.1 62.8 139.7 62.8C139.3 62.8 138.8 62.8 138.4 62.7V57.4C138.4 56.8 138.3 56.2 138.2 55.9C138 55.5 137.7 55.4 137.2 55.4C137 55.4 136.8 55.4 136.6 55.5C136.4 55.6 136.2 55.7 136.1 55.8C135.9 56 135.8 56.2 135.7 56.5C135.6 56.8 135.5 57.2 135.5 57.6V62.6C135.1 62.7 134.6 62.7 134.2 62.7C133.8 62.7 133.4 62.7 132.9 62.6V57.3C132.9 56.7 132.8 56.1 132.7 55.8C132.5 55.4 132.2 55.3 131.7 55.3C131.5 55.3 131.3 55.3 131.1 55.4C130.9 55.5 130.7 55.6 130.5 55.8C130.3 56 130.2 56.2 130.1 56.5C130 56.8 130 57.2 130 57.7V62.6C129.6 62.7 129.1 62.7 128.7 62.7C128.3 62.7 127.9 62.7 127.4 62.6V53.3H127.5Z" fill="white"/>
<path d="M148 56.5C148 56.2 148 56 147.9 55.8C147.8 55.6 147.7 55.5 147.5 55.4C147.3 55.3 147.1 55.2 146.9 55.2C146.7 55.2 146.4 55.1 146.1 55.1C145.5 55.1 144.8 55.2 144 55.5C143.8 55.2 143.7 54.9 143.6 54.6C143.5 54.3 143.5 54 143.5 53.6C144 53.4 144.6 53.3 145.1 53.2C145.6 53.1 146.1 53.1 146.6 53.1C147.9 53.1 148.8 53.4 149.5 54C150.2 54.6 150.6 55.6 150.6 56.9V62.3C150.2 62.4 149.7 62.6 149.1 62.7C148.5 62.8 147.8 62.9 147.1 62.9C146.5 62.9 145.9 62.8 145.4 62.7C144.9 62.6 144.5 62.4 144.1 62.2C143.7 61.9 143.4 61.6 143.3 61.2C143.1 60.8 143 60.3 143 59.7C143 59.1 143.1 58.6 143.4 58.2C143.7 57.8 144 57.5 144.4 57.3C144.8 57.1 145.2 56.9 145.7 56.8C146.2 56.7 146.7 56.6 147.1 56.6C147.4 56.6 147.8 56.6 148.3 56.7V56.5H148ZM148 58.4C147.9 58.4 147.7 58.4 147.5 58.3C147.3 58.3 147.2 58.3 147.1 58.3C146.5 58.3 146 58.4 145.7 58.6C145.4 58.8 145.2 59.2 145.2 59.6C145.2 59.9 145.3 60.2 145.4 60.3C145.5 60.5 145.7 60.6 145.9 60.7C146.1 60.8 146.3 60.8 146.5 60.8C146.7 60.8 146.9 60.8 147 60.8C147.2 60.8 147.4 60.8 147.5 60.8C147.7 60.8 147.8 60.7 148 60.7V58.4Z" fill="white"/>
</svg>
