<?xml version="1.0" encoding="UTF-8" standalone="no"?>
<svg
   width="88"
   height="88"
   viewBox="0 0 88 88"
   fill="none"
   version="1.1"
   id="svg3"
   sodipodi:docname="recovery_3.svg"
   inkscape:version="1.3.2 (091e20e, 2023-11-25, custom)"
   xmlns:inkscape="http://www.inkscape.org/namespaces/inkscape"
   xmlns:sodipodi="http://sodipodi.sourceforge.net/DTD/sodipodi-0.dtd"
   xmlns="http://www.w3.org/2000/svg"
   xmlns:svg="http://www.w3.org/2000/svg">
  <defs
     id="defs3" />
  <sodipodi:namedview
     id="namedview3"
     pagecolor="#ffffff"
     bordercolor="#000000"
     borderopacity="0.25"
     inkscape:showpageshadow="2"
     inkscape:pageopacity="0.0"
     inkscape:pagecheckerboard="0"
     inkscape:deskcolor="#d1d1d1"
     inkscape:zoom="8.3977273"
     inkscape:cx="44.05954"
     inkscape:cy="44.05954"
     inkscape:window-width="1920"
     inkscape:window-height="974"
     inkscape:window-x="-11"
     inkscape:window-y="-11"
     inkscape:window-maximized="1"
     inkscape:current-layer="svg3" />
  <circle
     opacity="0.8"
     cx="44"
     cy="44"
     r="44"
     fill="#E2F4FF"
     id="circle1"
     style="fill:#ffffff;fill-opacity:1;opacity:0.40236686" />
  <path
     d="M78 49.6667V38.3333H71.7667C70.9167 34.65 69.5 31.25 67.5167 28.4167L72.05 23.8833L64.1167 15.95L59.5833 20.4833C56.75 18.5 53.35 17.0833 49.6667 16.2333V10H38.3333V16.2333C34.65 17.0833 31.25 18.5 28.4167 20.4833L23.8833 15.95L15.95 23.8833L20.4833 28.4167C18.5 31.25 17.0833 34.65 16.2333 38.3333H10V49.6667H16.2333C17.0833 53.35 18.5 56.75 20.4833 59.5833L15.95 64.1167L23.8833 72.05L28.4167 67.5167C31.25 69.5 34.65 70.9167 38.3333 71.7667V78H49.6667V71.7667C53.35 70.9167 56.75 69.5 59.5833 67.5167L64.1167 72.05L72.05 64.1167L67.5167 59.5833C69.5 56.75 70.9167 53.35 71.7667 49.6667H78Z"
     fill="#BA93E1"
     id="path1"
     style="fill:#a3a3a3;fill-opacity:1" />
  <path
     d="M44 61C53.3888 61 61 53.3888 61 44C61 34.6112 53.3888 27 44 27C34.6112 27 27 34.6112 27 44C27 53.3888 34.6112 61 44 61Z"
     fill="#80C5CE"
     id="path2"
     style="fill:#ffffff;fill-opacity:1" />
  <path
     d="M41.1667 53.6334L33.5167 45.9834L37.4833 42.0168L41.1667 45.7001L50.5167 36.3501L54.4833 40.3168L41.1667 53.6334Z"
     fill="white"
     id="path3"
     style="fill:#499f42;fill-opacity:1" />
</svg>
